<?xml version="1.0" standalone="no"?>
<!DOCTYPE svg PUBLIC "-//W3C//DTD SVG 20010904//EN"
 "http://www.w3.org/TR/2001/REC-SVG-20010904/DTD/svg10.dtd">
<svg version="1.0" xmlns="http://www.w3.org/2000/svg"
 width="260.000000pt" height="260.000000pt" viewBox="0 0 260.000000 260.000000"
 preserveAspectRatio="xMidYMid meet">
<metadata>
Created by potrace 1.11, written by Peter Selinger 2001-2013
</metadata>
<g transform="translate(0.000000,260.000000) scale(0.100000,-0.100000)"
fill="#000000" stroke="none">
<path d="M1382 2347 c-47 -14 -110 -79 -140 -145 -20 -45 -26 -77 -31 -166
l-6 -111 -432 -3 c-376 -2 -433 -4 -433 -17 0 -13 56 -15 435 -15 l435 0 0
-32 c0 -18 3 -55 6 -83 l6 -50 -55 -42 -55 -43 -386 0 c-379 0 -386 0 -386
-20 0 -20 7 -20 361 -20 l361 0 -61 -67 c-34 -36 -73 -92 -89 -124 l-27 -58
-272 0 c-236 -1 -273 -3 -273 -16 0 -13 36 -15 266 -15 l265 0 -8 -47 c-4 -27
-7 -85 -6 -130 l1 -83 -259 0 c-224 0 -259 -2 -259 -15 0 -13 36 -15 268 -15
l267 0 24 -50 c31 -65 116 -144 194 -180 l62 -29 -407 -1 c-356 0 -408 -2
-408 -15 0 -13 61 -15 489 -15 l488 0 6 -57 c18 -162 19 -212 8 -246 -17 -50
-54 -77 -105 -77 -64 0 -75 14 -29 36 25 12 44 32 57 57 16 34 17 42 4 75 -39
104 -184 108 -232 7 -44 -92 23 -201 135 -220 98 -17 184 26 210 102 11 36 6
245 -8 300 l-5 23 446 0 c388 0 446 2 446 15 0 13 -56 15 -422 17 -382 3 -419
4 -380 17 86 29 149 105 167 204 l7 37 314 0 c272 0 314 2 314 15 0 13 -42 15
-314 15 l-314 0 -11 50 c-15 70 -35 107 -89 163 l-46 47 387 0 c337 0 387 2
387 15 0 13 -59 15 -475 15 l-475 0 0 23 c0 12 -5 62 -10 111 -6 63 -6 94 2
103 8 10 107 13 484 13 467 0 474 0 474 20 0 20 -7 20 -446 20 l-446 0 46 54
c40 47 78 115 99 179 6 16 33 17 377 17 321 0 370 2 370 15 0 13 -50 15 -366
17 l-367 3 2 100 c2 119 -11 202 -39 260 -28 57 -55 74 -98 62z m71 -197 c24
-46 20 -163 -6 -203 -17 -26 -21 -27 -104 -27 l-86 0 6 67 c8 82 40 149 87
181 47 32 80 26 103 -18z m-107 -325 c-37 -36 -72 -65 -77 -65 -5 0 -9 29 -9
65 l0 65 78 0 77 -1 -69 -64z m-93 -402 l6 -73 -115 0 -114 0 17 26 c9 15 56
60 102 101 l86 75 6 -29 c4 -15 9 -61 12 -100z m-100 -133 c-58 -43 -87 -105
-81 -176 l5 -55 -56 3 -56 3 0 80 c0 54 6 96 18 128 l19 47 96 0 96 0 -41 -30z
m250 -91 c47 -13 112 -69 126 -109 l10 -30 -105 0 c-101 0 -104 1 -104 23 0
12 -3 46 -6 75 -7 50 -6 52 17 52 13 0 41 -5 62 -11z m-123 -38 c0 -21 3 -53
6 -70 l7 -31 -82 0 c-70 0 -81 2 -81 18 0 30 38 81 77 101 59 31 73 28 73 -18z
m-174 -157 c9 -14 30 -32 47 -41 l30 -15 -22 35 c-11 19 -21 37 -21 41 0 3 33
6 74 6 l74 0 6 -37 c3 -21 8 -74 12 -117 l7 -79 -60 5 c-108 10 -186 57 -244
147 -44 68 -40 81 26 81 47 0 57 -3 71 -26z m434 -17 c0 -53 -27 -105 -70
-134 -38 -26 -101 -46 -111 -35 -4 4 -11 53 -14 110 l-8 102 102 0 101 0 0
-43z"/>
</g>
</svg>
